<svg width="175" height="175" viewBox="0 0 175 175" fill="none" xmlns="http://www.w3.org/2000/svg">
<circle cx="56.5" cy="41.5" r="15.5" fill="#5892E9"/>
<path d="M86 56H98V70H86V86H74V74H52V86H40C40 76.0463 43.1616 66.8312 48.5352 59.3037C50.9671 60.3933 53.6626 61 56.5 61C67.2695 61 76 52.2695 76 41.5C76 41.3642 75.9969 41.2288 75.9941 41.0938C79.2155 40.3792 82.5635 40 86 40V56Z" fill="#5892E9"/>
<path d="M120 86L120 98L106 98L106 86L90 86L90 74L102 74L102 52L90 52L90 40C99.9537 40 109.169 43.1616 116.696 48.5352C115.607 50.9671 115 53.6626 115 56.5C115 67.2695 123.73 76 134.5 76C134.636 76 134.771 75.9969 134.906 75.9941C135.621 79.2155 136 82.5635 136 86L120 86Z" fill="#EF4E75"/>
<path d="M90 120L78 120L78 106L90 106L90 90L102 90L102 102L124 102L124 90L136 90C136 99.9537 132.838 109.169 127.465 116.696C125.033 115.607 122.337 115 119.5 115C108.73 115 100 123.73 100 134.5C100 134.636 100.003 134.771 100.006 134.906C96.7845 135.621 93.4365 136 90 136L90 120Z" fill="#2DD097"/>
<path d="M56 90L56 78L70 78L70 90L86 90L86 102L74 102L74 124L86 124L86 136C76.0463 136 66.8312 132.838 59.3037 127.465C60.3933 125.033 61 122.337 61 119.5C61 108.73 52.2695 100 41.5 100C41.3642 100 41.2288 100.003 41.0937 100.006C40.3792 96.7845 40 93.4365 40 90L56 90Z" fill="#F6B244"/>
<circle cx="41.5" cy="119.5" r="15.5" transform="rotate(-90 41.5 119.5)" fill="#F6B244"/>
<circle cx="119.5" cy="134.5" r="15.5" transform="rotate(-180 119.5 134.5)" fill="#2DD097"/>
<circle cx="134.5" cy="56.5" r="15.5" transform="rotate(90 134.5 56.5)" fill="#EF4E75"/>
</svg>
